<?xml version="1.0" encoding="utf-8"?>
<!-- Generator: Adobe Illustrator 16.0.0, SVG Export Plug-In . SVG Version: 6.00 Build 0)  -->
<!DOCTYPE svg PUBLIC "-//W3C//DTD SVG 1.1//EN" "http://www.w3.org/Graphics/SVG/1.1/DTD/svg11.dtd">
<svg version="1.1" xmlns="http://www.w3.org/2000/svg" xmlns:xlink="http://www.w3.org/1999/xlink" x="0px" y="0px" width="80px" viewBox="0 0 800 800" enable-background="new 0 0 800 800" xml:space="preserve">
<g id="Layer_2">
</g>
<g id="Layer_1">
	<g>
		<path fill="#FFFFFF" d="M728.803,221.691h-84.958V27.501H109.821v194.19H97.685c-33.46,0-60.685,27.225-60.685,60.685v364.106
			c0,33.459,27.225,60.684,60.685,60.684h157.779v48.549h-48.547v24.273H619.57v-24.273h-48.547v-48.549h157.778
			c33.459,0,60.686-27.225,60.686-60.684V282.376C789.487,248.917,762.262,221.691,728.803,221.691L728.803,221.691z
			 M619.57,318.786h24.273v72.822H619.57V318.786z M595.296,343.06H376.833v-24.274h218.463V343.06z M352.559,386.233
			l-69.336-25.999c-2.085-0.788-3.484-2.803-3.484-5.038c0-2.235,1.399-4.249,3.497-5.037l69.324-25.999V386.233z M376.833,367.333
			h218.463v24.274H376.833V367.333z M668.118,318.786h12.138c20.072,0,36.409,16.339,36.409,36.411
			c0,20.072-16.337,36.411-36.409,36.411h-12.138V318.786z M362.486,294.513l-87.773,32.914
			c-11.504,4.309-19.249,15.473-19.249,27.77c0,12.297,7.745,23.462,19.237,27.771l87.785,32.913H619.57v121.37H134.096V148.87
			H619.57v145.643H362.486z M619.57,51.774v72.822H134.096V51.774H619.57z M97.685,245.965h12.137v315.561h534.023V415.881h36.411
			c33.459,0,60.686-27.225,60.686-60.684s-27.227-60.684-60.686-60.684h-36.411v-48.548h84.958
			c20.072,0,36.411,16.339,36.411,36.411v327.695H61.273V282.376C61.273,262.304,77.613,245.965,97.685,245.965L97.685,245.965z
			 M546.75,755.715H279.738v-48.549H546.75V755.715z M728.803,682.893H97.685c-20.072,0-36.411-16.338-36.411-36.409v-12.138h703.94
			v12.138C765.214,666.555,748.875,682.893,728.803,682.893L728.803,682.893z"/>
		<rect x="158.369" y="76.049" fill="#FFFFFF" width="24.274" height="24.273"/>
		<rect x="206.917" y="76.049" fill="#FFFFFF" width="24.274" height="24.273"/>
		<rect x="255.464" y="76.049" fill="#FFFFFF" width="24.274" height="24.273"/>
		<path fill="#FFFFFF" d="M158.369,270.239h145.643v-97.095H158.369V270.239z M182.643,197.417h97.095v48.547h-97.095V197.417z"/>
		<path fill="#FFFFFF" d="M340.422,173.144v97.095h145.643v-97.095H340.422L340.422,173.144z M461.791,245.965h-97.095v-48.547
			h97.095V245.965z"/>
		<rect x="158.369" y="294.513" fill="#FFFFFF" width="84.958" height="24.273"/>
		<rect x="158.369" y="343.06" fill="#FFFFFF" width="72.822" height="24.273"/>
		<rect x="158.369" y="391.608" fill="#FFFFFF" width="84.958" height="24.273"/>
		<rect x="158.369" y="440.155" fill="#FFFFFF" width="436.927" height="24.272"/>
		<rect x="571.023" y="488.703" fill="#FFFFFF" width="24.271" height="24.273"/>
		<rect x="158.369" y="488.703" fill="#FFFFFF" width="388.381" height="24.273"/>
	</g>
</g>
</svg>
