<?xml version="1.0" encoding="utf-8"?>
<!-- Generator: Adobe Illustrator 16.0.0, SVG Export Plug-In . SVG Version: 6.00 Build 0)  -->
<!DOCTYPE svg PUBLIC "-//W3C//DTD SVG 1.1//EN" "http://www.w3.org/Graphics/SVG/1.1/DTD/svg11.dtd">
<svg version="1.1" xmlns="http://www.w3.org/2000/svg" xmlns:xlink="http://www.w3.org/1999/xlink" x="0px" y="0px" width="100px" viewBox="0 0 800 800" enable-background="new 0 0 800 800" xml:space="preserve">
<g id="Layer_2">
</g>
<g id="Layer_1">
	<path fill="#FFFFFF" d="M324.546,238.908c-0.976,0-1.942-0.088-2.902-0.278c-0.947-0.198-1.878-0.475-2.769-0.844
		c-0.891-0.37-1.747-0.833-2.563-1.365c-0.798-0.531-1.556-1.15-2.248-1.832c-2.754-2.77-4.337-6.575-4.337-10.465
		c0-0.977,0.104-1.936,0.296-2.903c0.189-0.947,0.475-1.878,0.845-2.77c0.37-0.882,0.826-1.745,1.363-2.554
		c0.545-0.804,1.15-1.555,1.834-2.256c0.692-0.676,1.45-1.282,2.249-1.832c0.814-0.531,1.671-0.988,2.562-1.358
		c0.89-0.37,1.821-0.652,2.769-0.844c4.812-0.967,9.916,0.606,13.361,4.034c0.684,0.701,1.308,1.452,1.838,2.256
		c0.533,0.81,0.989,1.672,1.359,2.554c0.371,0.892,0.654,1.822,0.845,2.77c0.195,0.967,0.283,1.926,0.283,2.903
		c0,0.96-0.087,1.926-0.283,2.885c-0.19,0.948-0.475,1.879-0.845,2.77c-0.37,0.883-0.826,1.744-1.359,2.561
		c-0.53,0.797-1.154,1.566-1.838,2.25c-0.676,0.682-1.443,1.301-2.248,1.832c-0.811,0.531-1.671,0.995-2.563,1.365
		c-0.886,0.369-1.814,0.646-2.764,0.844C326.466,238.82,325.506,238.908,324.546,238.908L324.546,238.908z"/>
	<path fill="#FFFFFF" d="M614.813,238.918c-1.008,0-2.02-0.098-3.043-0.311c-42.725-8.904-91.864-13.617-142.104-13.617
		c-27.461,0-54.692,1.411-80.928,4.186c-8.111,0.873-15.413-5.029-16.275-13.163c-0.854-8.129,5.036-15.414,13.165-16.275
		c27.265-2.884,55.535-4.349,84.038-4.349c52.234,0,103.463,4.926,148.146,14.24c8.003,1.665,13.137,9.504,11.472,17.507
		C627.824,234.12,621.672,238.918,614.813,238.918L614.813,238.918z"/>
	<path fill="#FFFFFF" d="M100.096,369.821c-0.958,0-1.936-0.104-2.883-0.295c-0.948-0.197-1.879-0.475-2.77-0.844
		c-0.901-0.37-1.756-0.833-2.561-1.365c-0.81-0.532-1.567-1.15-2.249-1.833c-0.683-0.682-1.301-1.439-1.833-2.249
		c-0.533-0.798-0.994-1.659-1.364-2.561c-0.37-0.89-0.648-1.821-0.843-2.769c-0.191-0.948-0.296-1.926-0.296-2.885
		c0-0.966,0.105-1.942,0.296-2.902c0.195-0.931,0.473-1.862,0.843-2.77c0.37-0.885,0.832-1.746,1.364-2.544
		c0.532-0.815,1.15-1.567,1.833-2.25c0.682-0.692,1.439-1.299,2.249-1.85c0.804-0.531,1.66-0.993,2.561-1.363
		c0.891-0.37,1.822-0.648,2.77-0.846c1.907-0.381,3.879-0.381,5.786,0c0.931,0.197,1.862,0.476,2.77,0.846
		c0.885,0.37,1.747,0.832,2.544,1.363c0.815,0.55,1.567,1.157,2.25,1.85c0.683,0.683,1.301,1.435,1.851,2.25
		c0.531,0.798,0.995,1.659,1.364,2.544c0.37,0.907,0.646,1.838,0.843,2.77c0.19,0.959,0.277,1.936,0.277,2.902
		c0,0.959-0.087,1.937-0.277,2.885c-0.197,0.948-0.474,1.879-0.843,2.769c-0.37,0.902-0.833,1.763-1.364,2.561
		c-0.55,0.81-1.168,1.567-1.851,2.249s-1.435,1.301-2.25,1.833c-0.797,0.532-1.659,0.995-2.544,1.365
		c-0.907,0.37-1.838,0.647-2.77,0.844C102.039,369.716,101.062,369.821,100.096,369.821L100.096,369.821z"/>
	<rect x="32.224" y="18.609" fill="none" width="757.774" height="757.773"/>
	<path fill="#FFFFFF" d="M166.426,259.454l-45.216-90.837c-2.497-5.023-7.632-8.204-13.246-8.204H92.24
		c-5.62,0-10.754,3.18-13.25,8.204l-45.217,90.837c-1.018,2.053-1.549,4.308-1.549,6.598v495.53c0,8.175,6.626,14.801,14.8,14.801
		h106.152c8.174,0,14.8-6.626,14.8-14.801v-495.53C167.977,263.762,167.443,261.506,166.426,259.454L166.426,259.454z
		 M61.824,269.531l15.858-31.86h44.834l15.859,31.86v5.966H61.824V269.531z M138.376,305.097V609.22h-23.474V418.656
		c0-8.175-6.624-14.801-14.8-14.801c-8.174,0-14.8,6.626-14.8,14.801V609.22H61.824V305.097H138.376z M61.824,638.82h76.552v24.046
		H61.824V638.82z M100.102,192.633l7.685,15.436H92.419L100.102,192.633z M138.376,746.781H61.824v-54.316h76.552V746.781z"/>
	<rect x="32.224" y="18.609" fill="none" width="757.774" height="757.773"/>
	<path fill="#FFFFFF" d="M781.613,167.133L476.081,20.071c-4.03-1.942-8.729-1.948-12.776-0.029l-305.534,145.35
		c-5.29,2.521-8.597,7.926-8.435,13.782c0.168,5.863,3.776,11.072,9.205,13.286l101.982,41.615v99.717
		c0,5.51,3.058,10.563,7.944,13.111c0.873,0.458,1.774,0.822,2.693,1.088v58.6h-0.896c-8.175,0-14.8,6.624-14.8,14.799
		c0,8.177,6.625,14.802,14.8,14.802h0.896v8.649c0,43.722,13.83,81.688,41.105,112.839c22.449,25.647,53.762,45.65,91.033,58.254
		v18.34H277.504c-36.898,0-66.914,30.018-66.914,66.912v60.396c0,8.175,6.625,14.801,14.8,14.801h488.547
		c8.174,0,14.8-6.626,14.8-14.801v-60.396c0-36.896-30.018-66.912-66.907-66.912H536.029v-18.34
		c37.271-12.604,68.582-32.605,91.031-58.254c27.275-31.149,41.105-69.117,41.105-112.839v-8.649h0.896
		c8.177,0,14.801-6.625,14.801-14.802c0-8.175-6.624-14.799-14.801-14.799h-0.896v-58.6c0.919-0.267,1.821-0.63,2.693-1.088
		c4.886-2.548,7.943-7.601,7.943-13.111V235.19l36.075-14.511v152.136c0,8.175,6.625,14.8,14.8,14.8s14.801-6.625,14.801-14.8
		v-164.04l36.237-14.574c5.44-2.192,9.078-7.385,9.269-13.247C790.183,175.097,786.898,169.675,781.613,167.133L781.613,167.133z
		 M649.203,308.254c-20.559-9.59-43.001-14.58-66.092-14.58c-43.539,0-83.985,17.511-113.447,48.592
		c-29.461-31.081-69.903-48.592-113.447-48.592c-23.09,0-45.533,4.989-66.093,14.58V196.889
		c51.495-13.644,114.72-21.109,179.54-21.109s128.051,7.465,179.539,21.109V308.254z M699.138,701.185v45.598H240.191v-45.598
		c0-20.576,16.737-37.313,37.313-37.313H661.83C682.4,663.87,699.138,680.607,699.138,701.185L699.138,701.185z M638.566,444.84
		c0,70.271-44.28,123.495-121.484,146.03c-6.313,1.845-10.654,7.63-10.654,14.209v29.192h-73.525v-29.192
		c0-6.579-4.344-12.364-10.656-14.209c-77.205-22.535-121.484-75.76-121.484-146.03v-8.649h17.569
		c6.817,31.752,35.099,55.622,68.856,55.622c33.752,0,62.034-23.87,68.851-55.622h27.253c6.816,31.752,35.1,55.622,68.855,55.622
		c33.752,0,62.04-23.87,68.855-55.622h17.564V444.84z M346.365,421.389c0-22.506,18.31-40.821,40.821-40.821
		c22.508,0,40.817,18.315,40.817,40.821c0,22.508-18.31,40.824-40.817,40.824C364.675,462.213,346.365,443.896,346.365,421.389
		L346.365,421.389z M511.324,421.389c0-22.506,18.309-40.821,40.822-40.821c22.507,0,40.821,18.315,40.821,40.821
		c0,22.508-18.314,40.824-40.821,40.824C529.633,462.213,511.324,443.896,511.324,421.389L511.324,421.389z M621.002,406.59
		c-6.814-31.746-35.104-55.624-68.854-55.624c-33.758,0-62.039,23.872-68.856,55.624h-27.253
		c-6.816-31.746-35.099-55.624-68.85-55.624c-33.759,0-62.04,23.872-68.857,55.624h-17.569v-70.613
		c17.17-8.349,36.03-12.702,55.456-12.702c40.318,0,77.354,18.505,101.618,50.783c2.799,3.718,7.182,5.908,11.829,5.908
		c4.654,0,9.037-2.19,11.828-5.908c24.265-32.278,61.307-50.783,101.619-50.783c19.425,0,38.284,4.353,55.455,12.702v70.613H621.002
		z M668.143,171.427c-55.898-16.28-126.391-25.248-198.479-25.248s-142.579,8.967-198.479,25.248
		c-6.314,1.844-10.661,7.631-10.661,14.21v16.465l-59.756-24.379L469.629,49.816L738.55,179.255l-59.739,24.026v-17.646
		C678.805,179.059,674.463,173.271,668.143,171.427L668.143,171.427z"/>
</g>
</svg>
