<?xml version="1.0" encoding="utf-8"?>
<!-- Generator: Adobe Illustrator 16.0.0, SVG Export Plug-In . SVG Version: 6.00 Build 0)  -->
<!DOCTYPE svg PUBLIC "-//W3C//DTD SVG 1.1//EN" "http://www.w3.org/Graphics/SVG/1.1/DTD/svg11.dtd">
<svg version="1.1" xmlns="http://www.w3.org/2000/svg" xmlns:xlink="http://www.w3.org/1999/xlink" x="0px" y="0px" width="100px" viewBox="0 0 800 800" enable-background="new 0 0 800 800" xml:space="preserve">
<g id="Layer_2">
</g>
<g id="Layer_1">
	<rect x="159.999" y="11.053" fill="none" width="491.876" height="783.018"/>
	<path fill="#FFFFFF" d="M540.422,539.094c12.869-12.87,23.661-27.271,32.228-42.773c3.472,1.006,7.129,1.546,10.959,1.546
		c35.362,0,66.829-44.308,66.829-79.228c0-19.351-6.864-35.89-18.334-47.22v-93.065c0-6.429-5.213-11.642-11.646-11.642
		c-6.429,0-11.637,5.213-11.637,11.642v79.364c-4.012-1.186-8.242-1.952-12.647-2.257v-76.502c0-6.422-5.207-11.642-11.642-11.642
		c-6.43,0-11.644,5.22-11.644,11.642v12.594c-45.447-2.993-209.706-20.01-293.875-111.674c-0.964-1.041-2.107-1.909-3.376-2.537
		c-4.766-2.388-10.541-1.227-14.025,2.813c-29.73,34.477-46.1,78.585-46.1,124.19v51.111c-3.388,0.24-6.675,0.742-9.834,1.509
		V165.764c0-12.462,5.75-23.853,15.783-31.251c10.026-7.403,22.607-9.534,34.52-5.859c6.117,1.886,12.612-1.521,14.534-7.631
		c10.39-33.036,33.322-59.468,64.555-74.427c31.227-14.957,66.194-16.25,98.445-3.633l78.364,30.64
		c28.684,11.212,53.025,30.587,70.396,56.026c17.363,25.438,26.546,55.164,26.546,85.966v27.055c0,6.429,5.208,11.648,11.637,11.648
		c6.435,0,11.647-5.219,11.647-11.648v-27.055c0-35.507-10.583-69.769-30.599-99.093c-20.021-29.322-48.089-51.661-81.153-64.584
		l-78.358-30.64c-38.326-14.988-79.873-13.457-116.989,4.32c-33.909,16.239-59.582,43.863-73.175,78.448
		c-15.587-1.911-31.227,2.161-44.204,11.731c-16.036,11.833-25.237,30.054-25.237,49.986v203.063
		c-13.15,11.313-21.151,28.935-21.151,49.813c0,34.92,31.466,79.228,66.829,79.228c3.831,0,7.489-0.533,10.96-1.546
		c8.565,15.51,19.357,29.917,32.232,42.779c4.544,4.551,11.919,4.551,16.456,0c4.554-4.543,4.554-11.917,0-16.453
		c-31.551-31.557-48.928-73.499-48.928-118.121v-30.826h8.733c5.591,34.74,35.776,61.365,72.066,61.365
		c38.063,0,69.399-29.288,72.696-66.513c8.47-4.49,18.646-4.49,27.115,0c3.299,37.225,34.633,66.506,72.694,66.506
		c36.285,0,66.472-26.618,72.062-61.358h8.732v30.826c0,44.611-17.376,86.553-48.933,118.107
		c-31.544,31.55-73.491,48.935-118.119,48.935c-33.479,0-65.77-9.866-93.39-28.521c-5.326-3.604-12.563-2.197-16.161,3.123
		c-3.597,5.329-2.202,12.57,3.125,16.168c13.636,9.212,28.271,16.525,43.569,21.883v42.9L225.62,695.15
		c-2.682,1.563-4.633,4.131-5.423,7.137l-20.178,77.194c-1.627,6.22,2.101,12.583,8.32,14.205c0.987,0.258,1.976,0.384,2.952,0.384
		c5.165,0,9.888-3.473,11.251-8.697l18.952-72.505l67.685-39.24l13.318,66.487c0.785,3.896,3.501,7.122,7.2,8.564
		c3.712,1.438,7.895,0.888,11.104-1.472l30.3-22.231l25.115,36.984c2.16,3.191,5.771,5.102,9.63,5.102
		c3.855,0,7.465-1.909,9.626-5.102l25.11-36.967l30.275,22.214c2.028,1.49,4.446,2.261,6.889,2.261c1.418,0,2.844-0.257,4.209-0.789
		c3.704-1.442,6.428-4.675,7.2-8.564l13.323-66.494l67.686,39.247l18.951,72.499c1.363,5.23,6.087,8.703,11.253,8.703
		c0.98,0,1.963-0.126,2.95-0.384c6.226-1.628,9.947-7.985,8.319-14.209l-20.177-77.196c-0.791-3-2.735-5.568-5.424-7.131
		l-117.324-68.015v-42.881C495.396,574.947,519.855,559.679,540.422,539.094L540.422,539.094z M627.146,418.639
		c0,23.105-22.512,55.947-43.539,55.947c-0.232,0-0.461-0.019-0.693-0.021c3.369-8.53,6.117-17.3,8.213-26.267
		c2.604-9.326,9.522-24.195,17.022-24.195c6.429,0,11.647-5.213,11.647-11.641c0-6.429-5.22-11.643-11.647-11.643
		c-4.425,0-8.397,0.923-11.979,2.483v-24.438C611.83,380.858,627.146,393.493,627.146,418.639L627.146,418.639z M228.067,474.586
		c-21.021,0-43.54-32.842-43.54-55.947c0-25.152,15.323-37.781,30.983-39.773v24.444c-3.58-1.566-7.561-2.489-11.985-2.489
		c-6.428,0-11.646,5.214-11.646,11.643c0,6.428,5.218,11.642,11.646,11.642c7.524,0,14.462,14.96,17.048,24.278
		c2.094,8.938,4.837,17.682,8.188,26.183C228.529,474.567,228.307,474.586,228.067,474.586L228.067,474.586z M319.587,411.78
		c-27.414,0-49.716-22.309-49.716-49.724c0-17.957,8.128-28.348,49.716-28.348c41.583,0,49.711,10.391,49.711,28.348
		C369.299,389.471,347.002,411.78,319.587,411.78L319.587,411.78z M492.094,411.78c-27.414,0-49.711-22.309-49.711-49.724
		c0-17.957,8.135-28.348,49.711-28.348c41.582,0,49.719,10.391,49.719,28.348C541.813,389.471,519.508,411.78,492.094,411.78
		L492.094,411.78z M564.047,350.421c-7.445-39.966-53.619-40.002-71.953-40.002c-17.352,0-59.683,0.024-70.456,33.944
		c-10.271-3.262-21.32-3.262-31.593,0c-10.772-33.926-53.098-33.944-70.457-33.944c-18.327,0-64.506,0.036-71.954,40.002h-8.84
		v-46.078c0-35.74,11.456-70.438,32.496-99.002c44.037,42.959,108.526,74.407,191.948,93.556
		c48.872,11.217,90.406,14.862,109.649,16.023v35.501H564.047L564.047,350.421z M330.458,661.29l15.329-8.889
		c5.203,16.796,17.275,30.6,32.91,38.116l-36.957,27.12L330.458,661.29z M405.853,734.692l-15.964-23.5l15.947-11.7l15.962,11.713
		L405.853,734.692z M469.923,717.639l-36.942-27.106c15.646-7.52,27.72-21.315,32.927-38.111l15.307,8.87L469.923,717.639z
		 M445.438,633.111c-0.025,0.398-0.03,0.802-0.014,1.201c-0.27,21.604-17.916,39.099-39.588,39.099
		c-21.819,0-39.573-17.765-39.573-39.589v-43.12c12.912,2.728,26.159,4.146,39.573,4.146c13.467,0,26.719-1.398,39.602-4.111
		V633.111z"/>
	<path fill="#FFFFFF" d="M293.299,496.445c0,6.43,5.219,11.647,11.647,11.647h55.877c18.333,0,34.655-8.769,45.021-22.31
		c10.355,13.541,26.68,22.31,45.014,22.31h55.882c6.429,0,11.643-5.219,11.643-11.647c0-31.238-25.422-56.653-56.66-56.653h-28.114
		c3.579-4.574,3.274-11.193-0.928-15.4c-4.55-4.55-11.917-4.55-16.467,0c-2.771,2.771-6.458,4.299-10.372,4.299
		c-3.922,0-7.607-1.527-10.38-4.299c-4.55-4.55-11.917-4.55-16.466,0c-4.202,4.207-4.507,10.826-0.929,15.4h-28.108
		C318.72,439.792,293.299,465.207,293.299,496.445L293.299,496.445z M360.824,484.805h-42.14
		c4.729-12.678,16.963-21.734,31.274-21.734h42.146C387.37,475.753,375.134,484.805,360.824,484.805L360.824,484.805z
		 M493.004,484.805h-42.146c-14.312,0-26.546-9.052-31.28-21.734h42.145C476.034,463.069,488.27,472.127,493.004,484.805
		L493.004,484.805z"/>
</g>
</svg>
