<?xml version="1.0" encoding="utf-8"?>
<!-- Generator: Adobe Illustrator 24.0.1, SVG Export Plug-In . SVG Version: 6.00 Build 0)  -->
<svg version="1.1" id="Layer_1" xmlns="http://www.w3.org/2000/svg" xmlns:xlink="http://www.w3.org/1999/xlink" x="0px" y="0px"
	 viewBox="0 0 808.6 597.6" style="enable-background:new 0 0 808.6 597.6;" xml:space="preserve">
<style type="text/css">
	.st0{opacity:0.18;fill:#5079F7;enable-background:new    ;}
	.st1{opacity:0.11;fill:#5079F7;enable-background:new    ;}
	.st2{fill:#5079F7;}
	.st3{fill:#3F3D56;}
	.st4{opacity:5.000000e-02;fill:#000405;enable-background:new    ;}
	.st5{fill:url(#SVGID_1_);}
	.st6{fill:url(#SVGID_2_);}
	.st7{opacity:0.61;fill:url(#SVGID_3_);enable-background:new    ;}
	.st8{fill:url(#SVGID_4_);}
	.st9{fill:url(#SVGID_5_);}
	.st10{fill:url(#SVGID_6_);}
	.st11{fill:url(#SVGID_7_);}
	.st12{fill:#FFFFFF;}
	.st13{fill:url(#SVGID_8_);}
	.st14{fill:url(#SVGID_9_);}
	.st15{fill:url(#SVGID_10_);}
	.st16{fill:url(#SVGID_11_);}
	.st17{fill:url(#SVGID_12_);}
	.st18{opacity:0.2;fill:#3F3D56;enable-background:new    ;}
	.st19{fill:url(#SVGID_13_);}
	.st20{fill:url(#SVGID_14_);}
	.st21{fill:url(#SVGID_15_);}
	.st22{fill:url(#SVGID_16_);}
	.st23{opacity:0.24;fill:#FFFFFF;enable-background:new    ;}
	.st24{fill:url(#SVGID_17_);}
	.st25{fill:url(#SVGID_18_);}
	.st26{fill:url(#SVGID_19_);}
	.st27{fill:url(#SVGID_20_);}
	.st28{fill:url(#SVGID_21_);}
	.st29{fill:url(#SVGID_22_);}
	.st30{fill:url(#SVGID_23_);}
	.st31{fill:url(#SVGID_24_);}
</style>
<title>book_lover</title>
<g>
	<path class="st0" d="M319.9,79.9c-15.7,14.6-27.3,33.4-43.9,46.8c-28.2,22.8-66.4,27.3-99.5,41.8c-21.9,9.6-42.7,24.8-52.4,46.8
		c-7.8,17.8-6.8,38.8,1.3,56.4c7.9,17.1,6.6,37.1-3.4,53.1c-12.1,19.2-19.3,41.2-18.2,63.7c1.8,34.7,28,68.9,62.4,72.1
		c11.8,1.1,23.7-1.3,35.3-3.5c70.6-13,145.2-16.3,212.3,9.1c18.4,7,36.1,16.1,55.2,20.7c22.3,5.4,45.6,4.3,68.6,3.3
		c35.8-1.6,77.6-6.7,95.9-37.7c25.4-43-15-96.8-9.3-146.5c3.2-27.5,20.4-51.6,24-79c3.9-29.8-10.1-61.2-34.8-78.1
		c-34.3-23.4-81.7-17.7-117.2-39.3c-28-17.1-47.3-50.6-80.3-59.7C383.6,41,343.4,57.9,319.9,79.9z"/>
	<path class="st1" d="M170.8,378.8c-3.5-24-11.7-47-15.1-71s-1-50.3,14.2-69c10-12.2,24.3-19.8,38.3-26.9
		c12.4-6.3,25.3-12.7,39.1-14.4c12.2-1.5,24.5,0.6,36.7,2.1c22.9,2.8,46.3,3.1,69.1-0.8c29.7-5.2,57.9-17.1,86.9-25.1
		c28.5-7.9,56.7-11.9,88.5,3c22,10.3,38.2,31.9,43.5,55.7c8.5,38.5-10.7,81.1,5.4,117c4.6,10.1,11.6,18.8,17.4,28.3
		c7.1,11.7,12.2,24.4,15.2,37.8c1,4.6,1.8,9.4,0.5,14c-3.3,11.6-17.5,15.4-29.5,16.4c-39.8,3.2-79.5-4.3-119.2-8.6
		c-64.4-7-129.4-5.8-193.9-1c-15.8,1.2-31.6,2.6-47.3,4.2c-12.7,1.3-36.9,8.9-48.9,5.3c-13.4-4.1-4.6-12.9-1.8-25.6
		C173,406.5,172.7,392.4,170.8,378.8z"/>
	<path class="st2" d="M386.9,149.3c0,0-6.1,25-15.2,31.9c-9.4,7.2-19.2-6.6-19.2-6.6l-5.4,9.9c0,0,10.1,16.3,20.2,16.7
		c10.1,0.4,19-8.8,19-8.8L386.9,149.3z"/>
	<polygon class="st3" points="334.8,132.2 336.2,131.6 364.3,138.8 372.7,196.1 371.7,196.1 	"/>
	<path class="st4" d="M201.8,441.4c0,0-61.3,4.1-70.1,10c-8.8,5.9,60.3,7.2,170.5,3.9s195.1,0,255.2,6.1s141.6,4.9,142.7-10
		c1.1-14.9-148.8-15.1-148.8-15.1L201.8,441.4z"/>
	<path class="st2" d="M583.1,322.4c0,0-2.1,17.2-15.3,18.9h-58.1l-8.3-95.7h61.2c4.9,0,15.1,5.4,17.1,12.9c0.3,1.4,0.5,2.8,0.5,4.3
		l0,0C581.6,277.6,583.1,322.4,583.1,322.4z"/>
	
		<linearGradient id="SVGID_1_" gradientUnits="userSpaceOnUse" x1="620.7717" y1="309.8347" x2="666.6519" y2="239.9173" gradientTransform="matrix(1 0 0 -1 -1.42 429.95)">
		<stop  offset="0" style="stop-color:#FFFFFF;stop-opacity:0"/>
		<stop  offset="0.99" style="stop-color:#FFFFFF"/>
	</linearGradient>
	<path class="st5" d="M662.1,140.2h-56l-16.6-16.4l-0.7-0.7h55.8c4.9,0,15.1,5.4,17.1,12.9C661.8,137.4,662,138.8,662.1,140.2z"/>
	<path class="st2" d="M209.3,254.6l-5.5-2.4c-1.7-0.7-2.5-2.8-1.8-4.5c0.5-1.2,1.8-2,3.1-2h296.2c7.4-0.1,14.5,3.3,19.1,9.1
		c1.9,2.3,3.2,5.2,3.7,8.2c1.3,9,0.5,48,0.1,62.6c-0.2,8-6,14.8-13.9,15.8l-0.8,0.1H222.8L209.3,254.6z"/>
	<path class="st2" d="M209.3,254.6l-5.5-2.4c-1.7-0.7-2.5-2.8-1.8-4.5c0.5-1.2,1.8-2,3.1-2h296.2c7.4-0.1,14.5,3.3,19.1,9.1
		c1.9,2.3,3.2,5.2,3.7,8.2c1.3,9,0.5,48,0.1,62.6c-0.2,8-6,14.8-13.9,15.8l-0.8,0.1H222.8L209.3,254.6z"/>
	
		<linearGradient id="SVGID_2_" gradientUnits="userSpaceOnUse" x1="364.4698" y1="129.3049" x2="365.7831" y2="248.2087" gradientTransform="matrix(1 0 0 -1 -1.42 429.95)">
		<stop  offset="0" style="stop-color:#FFFFFF;stop-opacity:0"/>
		<stop  offset="0.99" style="stop-color:#FFFFFF"/>
	</linearGradient>
	<path class="st6" d="M524.4,325.5c-0.2,8-6,14.8-13.9,15.8l-0.8,0.1H222.8l-13.5-86.8l-5.5-2.4c-1.7-0.7-2.5-2.8-1.8-4.5
		c0.5-1.2,1.8-2,3.1-2h296.2c7.4-0.1,14.5,3.3,19.1,9.1c1.9,2.3,3.2,5.2,3.7,8.2C525.5,271.8,524.7,310.8,524.4,325.5z"/>
	
		<linearGradient id="SVGID_3_" gradientUnits="userSpaceOnUse" x1="409.1897" y1="225.4127" x2="347.7824" y2="77.7003" gradientTransform="matrix(1 0 0 -1 -1.42 429.95)">
		<stop  offset="0.17" style="stop-color:#00272E"/>
		<stop  offset="1" style="stop-color:#69B9EB;stop-opacity:0"/>
	</linearGradient>
	<path class="st7" d="M194.5,341.4h316.2c2.3,0,4.1-1.9,4.1-4.1l0,0c0-2.3-1.8-4.2-4.1-4.2H194.5c-2.3,0-4.1,1.9-4.1,4.2l0,0l0,0
		C190.4,339.6,192.2,341.4,194.5,341.4z"/>
	<path class="st2" d="M194.5,341.4h316.2c2.3,0,4.1-1.9,4.1-4.1l0,0c0-2.3-1.8-4.2-4.1-4.2H194.5c-2.3,0-4.1,1.9-4.1,4.2l0,0l0,0
		C190.4,339.6,192.2,341.4,194.5,341.4z"/>
	<path class="st2" d="M575.6,368.7v51.9c0,14.1-11.4,25.5-25.4,25.5H216.6c-14,0-25.4-11.4-25.4-25.5c0,0,0,0,0,0l0,0v-52
		c0-4.7,1.3-9.3,3.8-13.4c0.5-0.9,1.1-1.7,1.8-2.6c4.8-6.1,12.1-9.6,19.8-9.6h333.6C564.2,343.1,575.6,354.6,575.6,368.7
		L575.6,368.7L575.6,368.7z"/>
	
		<linearGradient id="SVGID_4_" gradientUnits="userSpaceOnUse" x1="318.8212" y1="892.1708" x2="321.3171" y2="979.1283" gradientTransform="matrix(1 0 0 1 0 -480)">
		<stop  offset="0" style="stop-color:#000000;stop-opacity:0"/>
		<stop  offset="0.91" style="stop-color:#000000;stop-opacity:0.8"/>
		<stop  offset="1" style="stop-color:#000000"/>
	</linearGradient>
	<path class="st8" d="M445.7,446.1H216.6c-9.9,0-18.9-5.8-23.1-14.9h237.6C431.1,431.2,434.5,443.9,445.7,446.1z"/>
	
		<linearGradient id="SVGID_5_" gradientUnits="userSpaceOnUse" x1="322.9948" y1="96.4583" x2="319.0695" y2="47.3731" gradientTransform="matrix(1 0 0 -1 -1.42 429.95)">
		<stop  offset="0" style="stop-color:#FFFFFF;stop-opacity:0"/>
		<stop  offset="0.99" style="stop-color:#FFFFFF"/>
	</linearGradient>
	<path class="st9" d="M445.7,343.1c-10.5,1.8-13.5,12.2-13.5,12.2H195l1.8-2.6c4.8-6.1,12.1-9.6,19.8-9.6H445.7z"/>
	
		<linearGradient id="SVGID_6_" gradientUnits="userSpaceOnUse" x1="480.4731" y1="874.2502" x2="332.8336" y2="868.6449" gradientTransform="matrix(1 0 0 1 0 -480)">
		<stop  offset="0" style="stop-color:#000000;stop-opacity:0"/>
		<stop  offset="0.91" style="stop-color:#000000;stop-opacity:0.8"/>
		<stop  offset="1" style="stop-color:#000000"/>
	</linearGradient>
	<path class="st10" d="M575.6,368.7v51.9c0,9.3-5,17.9-13.1,22.4H457.7c-8.8,0-15.9-7.2-15.9-16l0,0v-63c0-8.9,7.1-16,15.9-16
		c0,0,0,0,0,0H565C571.6,352.7,575.6,360.4,575.6,368.7z"/>
	<path class="st2" d="M575.6,368.7v51.9c0,1-0.1,1.9-0.2,2.9c0,0.4-0.1,0.8-0.2,1.2c-0.3,1.8-0.7,3.5-1.4,5.2
		c-0.2,0.4-0.3,0.8-0.5,1.2c-0.8,1.8-1.9,3.6-3.1,5.2c-0.3,0.4-0.7,0.8-1,1.2c-1.9,2.2-4.2,4-6.8,5.5h-89.7c-4.6,0-9-2-12-5.5
		c-0.3-0.4-0.7-0.8-1-1.2c-1.1-1.6-2-3.3-2.4-5.2c-0.1-0.4-0.2-0.8-0.3-1.2c-0.2-1-0.3-1.9-0.3-2.9v-63c0-1.1,0.1-2.2,0.4-3.3
		c0.1-0.4,0.2-0.8,0.3-1.2c0.5-1.9,1.4-3.6,2.6-5.2c0.3-0.4,0.7-0.8,1-1.2c3-3.2,7.2-5.1,11.6-5.1H565c2,1.4,3.7,3.1,5.2,5.1
		c0.3,0.4,0.6,0.8,0.9,1.2c1.1,1.6,2,3.4,2.7,5.2c0.2,0.4,0.3,0.8,0.4,1.2c0.6,1.7,0.9,3.4,1.1,5.2c0.1,0.4,0.1,0.8,0.1,1.2
		C575.6,367.4,575.6,368.1,575.6,368.7z"/>
	
		<linearGradient id="SVGID_7_" gradientUnits="userSpaceOnUse" x1="508.5379" y1="126.7629" x2="534.0253" y2="395.353" gradientTransform="matrix(1 0 0 -1 0 600)">
		<stop  offset="0" style="stop-color:#FFFFFF;stop-opacity:0"/>
		<stop  offset="0.99" style="stop-color:#FFFFFF"/>
	</linearGradient>
	<path class="st11" d="M575.6,368.7v51.9c0,1-0.1,1.9-0.2,2.9c0,0.4-0.1,0.8-0.2,1.2c-0.3,1.8-0.7,3.5-1.4,5.2
		c-0.2,0.4-0.3,0.8-0.5,1.2c-0.8,1.8-1.9,3.6-3.1,5.2c-0.3,0.4-0.7,0.8-1,1.2c-1.9,2.2-4.2,4-6.8,5.5h-89.7c-4.6,0-9-2-12-5.5
		c-0.3-0.4-0.7-0.8-1-1.2c-1.1-1.6-2-3.3-2.4-5.2c-0.1-0.4-0.2-0.8-0.3-1.2c-0.2-1-0.3-1.9-0.3-2.9v-63c0-1.1,0.1-2.2,0.4-3.3
		c0.1-0.4,0.2-0.8,0.3-1.2c0.5-1.9,1.4-3.6,2.6-5.2c0.3-0.4,0.7-0.8,1-1.2c3-3.2,7.2-5.1,11.6-5.1H565c2,1.4,3.7,3.1,5.2,5.1
		c0.3,0.4,0.6,0.8,0.9,1.2c1.1,1.6,2,3.4,2.7,5.2c0.2,0.4,0.3,0.8,0.4,1.2c0.6,1.7,0.9,3.4,1.1,5.2c0.1,0.4,0.1,0.8,0.1,1.2
		C575.6,367.4,575.6,368.1,575.6,368.7z"/>
	<path class="st12" d="M571.1,354.2h-111c0.3-0.4,0.7-0.8,1-1.2h109.1C570.5,353.3,570.8,353.8,571.1,354.2z"/>
	<path class="st12" d="M574.3,360.6H457.2c0.1-0.4,0.2-0.8,0.3-1.2h116.4C574,359.8,574.2,360.2,574.3,360.6z"/>
	<path class="st12" d="M575.5,367H456.8v-1.2h118.6C575.5,366.2,575.5,366.6,575.5,367z"/>
	<rect x="456.8" y="372.2" class="st12" width="118.8" height="1.2"/>
	<rect x="456.8" y="378.6" class="st12" width="118.8" height="1.2"/>
	<rect x="456.8" y="385" class="st12" width="118.8" height="1.2"/>
	<rect x="456.8" y="391.4" class="st12" width="118.8" height="1.2"/>
	<rect x="456.8" y="397.8" class="st12" width="118.8" height="1.2"/>
	<rect x="456.8" y="404.2" class="st12" width="118.8" height="1.2"/>
	<rect x="456.8" y="410.6" class="st12" width="118.8" height="1.2"/>
	<rect x="456.8" y="417" class="st12" width="118.8" height="1.2"/>
	<path class="st12" d="M575.4,423.4c0,0.4-0.1,0.8-0.2,1.2H456.8v-1.2H575.4z"/>
	<path class="st12" d="M573.9,429.8c-0.2,0.4-0.3,0.8-0.5,1.2h-116c-0.1-0.4-0.2-0.8-0.3-1.2H573.9z"/>
	<path class="st12" d="M570.2,436.3c-0.3,0.4-0.7,0.8-1,1.2H460.8c-0.3-0.4-0.7-0.8-1-1.2H570.2z"/>
	<path class="st2" d="M428.4,331.1H504c-3.2,1.6-6.7,2.4-10.3,2.4H212.6c-4.6,0-9.2-1.4-13-4c-1.1-0.8-2.1-1.6-3-2.6
		c-0.3-0.3-0.6-0.6-0.9-0.9c-1-1.2-1.9-2.5-2.6-4c-0.2-0.3-0.3-0.6-0.4-0.9c-0.5-1.3-0.9-2.6-1.2-4c-0.1-0.3-0.1-0.6-0.1-1
		c-0.1-0.7-0.1-1.5-0.1-2.2v-39.8c0-0.4,0-0.8,0-1.3c0-0.4,0.1-0.6,0.1-0.9c0.2-1.4,0.5-2.7,1-4c0.1-0.3,0.2-0.6,0.4-0.9
		c0.6-1.4,1.4-2.7,2.3-4l0.7-1c0.5-0.6,1.1-1.2,1.7-1.8c4.2-3.7,9.5-5.8,15.1-5.7h281.1c4.4,0,8.7,1.3,12.4,3.7h-77.7
		c-1.2,0-2.4,0.1-3.5,0.4c-2.4,0.6-4.5,1.8-6.3,3.4c-0.3,0.3-0.6,0.6-0.9,0.9c-1,1.2-1.7,2.5-2.2,4c-0.1,0.3-0.2,0.6-0.3,1
		c-0.2,0.8-0.3,1.7-0.3,2.6v48.3c0,0.7,0.1,1.5,0.2,2.2c0.1,0.3,0.1,0.6,0.2,0.9c0.4,1.4,1.1,2.8,2.1,4c0.3,0.3,0.5,0.6,0.8,0.9
		c1.3,1.3,2.8,2.4,4.5,3.1C424.5,330.8,426.5,331.2,428.4,331.1z"/>
	
		<linearGradient id="SVGID_8_" gradientUnits="userSpaceOnUse" x1="517.7634" y1="130.9895" x2="414.7245" y2="139.4796" gradientTransform="matrix(1 0 0 -1 -1.42 429.95)">
		<stop  offset="0" style="stop-color:#68E1FD"/>
		<stop  offset="1" style="stop-color:#FFFFFF"/>
	</linearGradient>
	<path class="st13" d="M515,274.5v40.3c0,0.2,0,0.5,0,0.7c0,0.2,0,0.5-0.1,0.7c0,0.2-0.1,0.4-0.1,0.6c0,0.2-0.1,0.3-0.1,0.5
		c0,0.1,0,0.2,0,0.2c0,0.2-0.1,0.4-0.1,0.7s-0.1,0.3-0.1,0.4s-0.1,0.3-0.1,0.4s-0.1,0.3-0.1,0.4l-0.2,0.5c0,0.1-0.1,0.3-0.1,0.4
		c0,0.1-0.1,0.3-0.2,0.5l-0.2,0.5c0,0.1-0.1,0.2-0.1,0.3c0,0.1-0.1,0.2-0.2,0.4c0,0.1-0.1,0.2-0.2,0.3s-0.2,0.3-0.2,0.5
		c-0.1,0.1-0.3,0.5-0.4,0.7l-0.2,0.4c-0.2,0.3-0.4,0.7-0.6,1c-0.1,0.2-0.2,0.3-0.4,0.5c-0.2,0.3-0.5,0.6-0.7,0.9
		c-0.3,0.3-0.6,0.6-0.9,0.9c-0.6,0.6-1.2,1.2-1.9,1.7c0,0,0,0-0.1,0c-0.2,0.2-0.4,0.3-0.7,0.5l-0.7,0.5l-0.7,0.5
		c-0.2,0.1-0.5,0.3-0.7,0.4l-0.8,0.5h-75.6c-1.9,0-3.8-0.4-5.6-1.1c-1.7-0.7-3.2-1.7-4.5-3c-0.3-0.3-0.6-0.6-0.8-0.9
		c-0.9-1.2-1.6-2.5-2.1-3.9c-0.1-0.3-0.2-0.6-0.2-0.9c-0.1-0.7-0.2-1.5-0.2-2.2v-48.1c0-0.9,0.1-1.7,0.3-2.5
		c0.1-0.3,0.2-0.6,0.3-0.9c0.5-1.4,1.2-2.8,2.2-3.9c0.3-0.3,0.6-0.7,0.9-1c1.8-1.7,3.9-2.9,6.3-3.4c1.1-0.3,2.3-0.4,3.5-0.4h77.7
		c0.3,0.2,0.7,0.5,1,0.7l0.4,0.3c0.5,0.4,1,0.8,1.5,1.2l0.4,0.4l0.3,0.3l0.4,0.4l0.4,0.4l0.1,0.1l0.1,0.1c0.2,0.3,0.5,0.6,0.7,0.9
		c0.1,0.1,0.2,0.3,0.3,0.5c0,0,0,0,0,0.1c0.2,0.3,0.4,0.6,0.6,0.9l0.3,0.5c0.2,0.3,0.4,0.7,0.5,1c0.1,0.2,0.2,0.3,0.3,0.5
		c0.1,0.2,0.2,0.4,0.2,0.5s0.1,0.3,0.2,0.5c0.1,0.2,0.1,0.3,0.2,0.5l0.2,0.5c0.2,0.6,0.4,1.3,0.5,2c0,0.1,0,0.2,0.1,0.3
		c0,0.2,0,0.3,0.1,0.5c0,0.2,0.1,0.5,0.1,0.8s0.1,0.6,0.1,0.9v0.5C515,273.9,515,274.2,515,274.5z"/>
	<path class="st2" d="M422.8,330c-1.7,0.4-3.4,0.8-5.2,1.1H217.2c-5.9,0-11.8-0.5-17.6-1.6c-1.1-0.8-2.1-1.6-3-2.6
		c-0.3-0.3-0.6-0.6-0.9-0.9c-1-1.2-1.9-2.5-2.6-4c-0.2-0.3-0.3-0.6-0.4-0.9c-0.5-1.3-0.9-2.6-1.2-4c-0.1-0.3-0.1-0.6-0.1-1
		c-0.1-0.7-0.1-1.5-0.1-2.2v-39.8c0-0.4,0-0.8,0-1.3c0-0.4,0.1-0.6,0.1-0.9c0.2-1.4,0.5-2.7,1-4c0.1-0.3,0.2-0.6,0.4-0.9
		c0.6-1.4,1.4-2.7,2.3-4l0.7-1c0.5-0.6,1.1-1.2,1.7-1.8c6.5-1.4,13.1-2.1,19.8-2h206l1.7,0.4c-2.4,0.6-4.5,1.8-6.3,3.4
		c-0.3,0.3-0.6,0.6-0.9,0.9c-1,1.2-1.7,2.5-2.2,4c-0.1,0.3-0.2,0.6-0.3,1c-0.2,0.8-0.3,1.7-0.3,2.6v48.3c0,0.7,0.1,1.5,0.2,2.2
		c0.1,0.3,0.1,0.6,0.2,0.9c0.4,1.4,1.1,2.8,2.1,4c0.3,0.3,0.5,0.6,0.8,0.9C419.6,328.3,421.1,329.3,422.8,330z"/>
	
		<linearGradient id="SVGID_9_" gradientUnits="userSpaceOnUse" x1="419.9208" y1="135.2482" x2="146.1325" y2="135.2482" gradientTransform="matrix(1 0 0 -1 -1.42 429.95)">
		<stop  offset="0" style="stop-color:#FFFFFF;stop-opacity:0"/>
		<stop  offset="0.99" style="stop-color:#FFFFFF"/>
	</linearGradient>
	<path class="st14" d="M422.8,330c-1.7,0.4-3.4,0.8-5.2,1.1H217.2c-5.9,0-11.8-0.5-17.6-1.6c-1.1-0.8-2.1-1.6-3-2.6
		c-0.3-0.3-0.6-0.6-0.9-0.9c-1-1.2-1.9-2.5-2.6-4c-0.2-0.3-0.3-0.6-0.4-0.9c-0.5-1.3-0.9-2.6-1.2-4c-0.1-0.3-0.1-0.6-0.1-1
		c-0.1-0.7-0.1-1.5-0.1-2.2v-39.8c0-0.4,0-0.8,0-1.3c0-0.4,0.1-0.6,0.1-0.9c0.2-1.4,0.5-2.7,1-4c0.1-0.3,0.2-0.6,0.4-0.9
		c0.6-1.4,1.4-2.7,2.3-4l0.7-1c0.5-0.6,1.1-1.2,1.7-1.8c6.5-1.4,13.1-2.1,19.8-2h206l1.7,0.4c-2.4,0.6-4.5,1.8-6.3,3.4
		c-0.3,0.3-0.6,0.6-0.9,0.9c-1,1.2-1.7,2.5-2.2,4c-0.1,0.3-0.2,0.6-0.3,1c-0.2,0.8-0.3,1.7-0.3,2.6v48.3c0,0.7,0.1,1.5,0.2,2.2
		c0.1,0.3,0.1,0.6,0.2,0.9c0.4,1.4,1.1,2.8,2.1,4c0.3,0.3,0.5,0.6,0.8,0.9C419.6,328.3,421.1,329.3,422.8,330z"/>
	
		<linearGradient id="SVGID_10_" gradientUnits="userSpaceOnUse" x1="509.1531" y1="94.8958" x2="511.0779" y2="94.8958" gradientTransform="matrix(1 0 0 -1 -1.42 429.95)">
		<stop  offset="0" style="stop-color:#68E1FD"/>
		<stop  offset="1" style="stop-color:#69B9EB"/>
	</linearGradient>
	<path class="st15" d="M509.7,334.1c-0.6,0.7-1.2,1.3-1.9,1.9C508.4,335.4,509.1,334.8,509.7,334.1z"/>
	
		<linearGradient id="SVGID_11_" gradientUnits="userSpaceOnUse" x1="511.9776" y1="166.2716" x2="513.01" y2="166.2716" gradientTransform="matrix(1 0 0 -1 -1.42 429.95)">
		<stop  offset="0" style="stop-color:#68E1FD"/>
		<stop  offset="1" style="stop-color:#69B9EB"/>
	</linearGradient>
	<path class="st16" d="M511.6,264.4c-0.1-0.2-0.2-0.3-0.3-0.5c-0.2-0.3-0.5-0.7-0.7-1C510.9,263.4,511.3,263.9,511.6,264.4z"/>
	
		<linearGradient id="SVGID_12_" gradientUnits="userSpaceOnUse" x1="515.1707" y1="160.6496" x2="515.5099" y2="160.6496" gradientTransform="matrix(1 0 0 -1 -1.42 429.95)">
		<stop  offset="0" style="stop-color:#68E1FD"/>
		<stop  offset="1" style="stop-color:#69B9EB"/>
	</linearGradient>
	<path class="st17" d="M513.9,269.3c0.1,0.2,0.1,0.3,0.2,0.5c-0.1-0.3-0.2-0.7-0.3-1C513.8,269,513.9,269.1,513.9,269.3z"/>
	<path class="st2" d="M515,274.5v40.7c0,0.3,0,0.6-0.1,0.9c-0.1,1.2-0.4,2.4-0.8,3.6c-0.1,0.3-0.2,0.6-0.3,0.8
		c-1.9,4.7-5.4,8.5-9.9,10.6h-88.3c-6.8,0-12.4-4.6-13.3-10.6c-0.1-0.3-0.1-0.6-0.1-0.9c0-0.2,0-0.5,0-0.7v-48.1
		c0-6.8,6-12.2,13.4-12.2h90.4C511.5,262.1,515,268,515,274.5z"/>
	<path class="st12" d="M511.3,263.1h-93.5c0.3-0.3,0.6-0.7,0.9-1h91.9C510.8,262.4,511,262.7,511.3,263.1z"/>
	<path class="st12" d="M513.9,268h-98.7c0.1-0.3,0.2-0.6,0.3-0.9h98.1C513.7,267.3,513.8,267.7,513.9,268z"/>
	<path class="st12" d="M515,272.9H415v-1h99.9C514.9,272.3,515,272.6,515,272.9z"/>
	<rect x="415" y="276.9" class="st12" width="100.1" height="0.9"/>
	<rect x="415" y="281.8" class="st12" width="100.1" height="0.9"/>
	<rect x="415" y="286.7" class="st12" width="100.1" height="0.9"/>
	<rect x="415" y="291.6" class="st12" width="100.1" height="0.9"/>
	<rect x="415" y="296.5" class="st12" width="100.1" height="0.9"/>
	<rect x="415" y="301.4" class="st12" width="100.1" height="0.9"/>
	<rect x="415" y="306.3" class="st12" width="100.1" height="0.9"/>
	<rect x="415" y="311.3" class="st12" width="100.1" height="0.9"/>
	<path class="st12" d="M515,316.2v0.9H415v-0.9H515z"/>
	<path class="st12" d="M513.6,321.1c0,0.3-0.4,0.6-0.4,0.9h-97.7c-0.1-0.3-0.2-0.6-0.2-0.9H513.6z"/>
	<path class="st12" d="M421.3,263.1H195l0.7-1h223.8C420.1,262.4,420.7,262.8,421.3,263.1z"/>
	<path class="st12" d="M419.3,268h-227c0.1-0.3,0.2-0.6,0.4-0.9h225.7C418.7,267.3,419,267.6,419.3,268z"/>
	<path class="st12" d="M421.8,272.9H191.3c0-0.3,0-0.6,0.1-0.9h230.2C421.7,272.3,421.7,272.6,421.8,272.9z"/>
	<rect x="191.2" y="276.9" class="st12" width="230.7" height="0.9"/>
	<rect x="191.2" y="281.8" class="st12" width="230.7" height="0.9"/>
	<rect x="191.2" y="286.7" class="st12" width="230.7" height="0.9"/>
	<rect x="191.2" y="291.6" class="st12" width="230.7" height="0.9"/>
	<rect x="191.2" y="296.5" class="st12" width="230.7" height="0.9"/>
	<rect x="191.2" y="301.4" class="st12" width="230.7" height="0.9"/>
	<rect x="191.2" y="306.3" class="st12" width="230.7" height="0.9"/>
	<rect x="191.2" y="311.3" class="st12" width="230.7" height="0.9"/>
	<path class="st12" d="M421.6,316.2c-0.1,0.3-0.2,0.6-0.3,0.9H191.5c-0.1-0.3-0.1-0.6-0.1-0.9H421.6z"/>
	<path class="st12" d="M418.4,321.1c-0.3,0.3-0.7,0.6-1,0.9H193.1c-0.2-0.3-0.3-0.6-0.4-0.9H418.4z"/>
	<path class="st18" d="M429.9,245.7c-3.3,4-7.6,8.1-9.3,9c-9.7,5.1-20.9,9.1-26.6,18.5c-7.2,11.9-2.5,27.4-5.8,40.9
		c-0.6,2.5-1.5,5-3.4,6.7c-1.9,1.7-4.9,2.3-7,0.7c-1.8-1.3-2.2-3.8-2.5-6c-2.9-20.8-3-41.9-0.3-62.8c-11.1,5-18.5,15.5-24.5,26.1
		s-10.9,22-19.1,30.9c-2.3,2.5-5.4,5-8.8,4.5c-4.1-5.2-1.9-12.8,0.4-19c4.6-12.5,9.3-25.1,15.3-36.9c1.9-3.9,4.1-7.7,7.3-10.6
		c0.9-0.8,1.8-1.5,2.9-2.1L429.9,245.7z"/>
	<path class="st12" d="M510.5,326c-0.3,0.3-0.5,0.6-0.8,0.9H196.6c-0.3-0.3-0.6-0.6-0.9-0.9H510.5z"/>
	
		<linearGradient id="SVGID_13_" gradientUnits="userSpaceOnUse" x1="226.9841" y1="-37.7141" x2="252.4837" y2="117.8801" gradientTransform="matrix(1 0 0 -1 -1.42 429.95)">
		<stop  offset="0" style="stop-color:#FFFFFF;stop-opacity:0"/>
		<stop  offset="0.99" style="stop-color:#FFFFFF"/>
	</linearGradient>
	<path class="st19" d="M264.3,446.1h-37.8c-12.1-3.1-18-16.3-18-16.3s-1.1-64.6,0-72.7s19.5-14,19.5-14h36.4
		c-12.1,1.8-20.9,13.7-20.9,13.7s-0.7,71.4,0,76.2S264.3,446.1,264.3,446.1z"/>
	<path class="st2" d="M264.3,446.1h-12.1c-12.1-3.1-18-16.3-18-16.3s-1.1-64.6,0-72.7s19.5-14,19.5-14h10.7
		c-12.1,1.8-20.9,13.7-20.9,13.7s-0.7,71.4,0,76.2S264.3,446.1,264.3,446.1z"/>
	
		<linearGradient id="SVGID_14_" gradientUnits="userSpaceOnUse" x1="247.994" y1="88.0391" x2="252.5955" y2="551.5295" gradientTransform="matrix(1 0 0 -1 0 600)">
		<stop  offset="0" style="stop-color:#FFFFFF;stop-opacity:0"/>
		<stop  offset="0.99" style="stop-color:#FFFFFF"/>
	</linearGradient>
	<path class="st20" d="M264.3,446.1h-12.1c-12.1-3.1-18-16.3-18-16.3s-1.1-64.6,0-72.7s19.5-14,19.5-14h10.7
		c-12.1,1.8-20.9,13.7-20.9,13.7s-0.7,71.4,0,76.2S264.3,446.1,264.3,446.1z"/>
	
		<linearGradient id="SVGID_15_" gradientUnits="userSpaceOnUse" x1="326.3328" y1="132.2521" x2="309.3141" y2="133.6604" gradientTransform="matrix(1 0 0 -1 0 430)">
		<stop  offset="0" style="stop-color:#ECC4D7"/>
		<stop  offset="0.42" style="stop-color:#EFD4D1"/>
		<stop  offset="1" style="stop-color:#F2EAC9"/>
	</linearGradient>
	<polygon class="st21" points="317,292.3 313.5,298.5 321.7,302 325.1,296.2 	"/>
	
		<linearGradient id="SVGID_16_" gradientUnits="userSpaceOnUse" x1="885.7099" y1="884.5682" x2="868.9154" y2="885.9493" gradientTransform="matrix(0.8924 -0.4512 -0.4512 -0.8924 -8.1434 1498.26)">
		<stop  offset="0" style="stop-color:#ECC4D7"/>
		<stop  offset="0.42" style="stop-color:#EFD4D1"/>
		<stop  offset="1" style="stop-color:#F2EAC9"/>
	</linearGradient>
	<polygon class="st22" points="372,308.8 371.7,315.7 380.6,315.2 381,308.8 	"/>
	<path class="st3" d="M315.1,297.1c-0.2-0.4-0.4-0.7-0.7-1c-0.4-0.2-0.8-0.4-1.2-0.4l-14.2-2.9c-0.5-0.1-1-0.2-1.6-0.2
		c-1.4,0.1-2.5,1.1-3.4,2.1c-0.5,0.5-0.8,1.1-0.9,1.8c0.1,0.9,0.6,1.7,1.3,2.2c1,0.9,2,1.8,3.1,2.6c2.1,1.5,4.3,2.8,6.5,4.1
		c1.5,0.9,3,1.7,4.6,2.5c2.6,1.3,5.2,2.4,7.9,3.4c0.4,0.2,0.8,0.1,1.1-0.3l0,0c1.9-2,3.5-4.4,4.5-7c0.3-0.6,0.7-2.1,0-2.6
		c-0.3-0.2-1-0.2-1.3-0.2C318.4,300.7,316.4,299.2,315.1,297.1L315.1,297.1z"/>
	<path class="st3" d="M372.6,312.6c-0.3-0.2-0.7-0.4-1.1-0.5c-0.4,0-0.9,0.1-1.3,0.2l-13.7,4.7c-0.5,0.1-1,0.4-1.5,0.6
		c-1.1,0.7-1.6,2.2-1.9,3.5c-0.2,0.7-0.2,1.4,0.1,2.1c0.5,0.7,1.3,1.2,2.2,1.3c1.3,0.3,2.7,0.5,4,0.7c2.6,0.2,5.1,0.3,7.7,0.2
		c1.7,0,3.5,0,5.2-0.2c2.9-0.2,5.7-0.6,8.5-1c0.4,0,0.8-0.3,0.8-0.7c0.7-2.7,0.8-5.6,0.4-8.3c-0.1-0.7-0.4-2.1-1.3-2.2
		c-0.3,0-0.9,0.4-1.2,0.5c-0.5,0.1-1,0.3-1.5,0.3C376.2,313.9,374.3,313.5,372.6,312.6z"/>
	<path class="st0" d="M269.9,114.3"/>
	<path class="st3" d="M427.9,220c0,0-2.3,21.8-22.3,25.7c-13.5,2.6-30.1,1.7-39.3,0.8c-4.5-0.4-8.8,1.7-11.2,5.5l-28.8,46.1
		l-8.3-4.1H318l-2.9-1.4l23.9-56.3c2.8-7.1,8.7-12.5,15.9-14.8l27.5-8.6l6.4-2C388.8,211.1,414.6,208.5,427.9,220z"/>
	<path class="st23" d="M382.5,213l1.8,3.9c0,0-31.7,9.4-35.6,13.9c-5.2,6.1-30.6,63.3-30.6,63.3H318l-2.9-1.4l23.9-56.2
		c2.8-7.1,8.7-12.5,15.9-14.8L382.5,213z"/>
	<path class="st3" d="M393.7,216.2c0,0-25.5,25-26.3,38.4c-0.8,13.4,2.7,55.2,2.7,55.2h12.4c0,0-0.6-50.9,4.4-51.2
		c5-0.4,27.9-15.2,31.5-19.4S428,220,428,220L393.7,216.2z"/>
	<path class="st2" d="M427.9,220c0,0-20.4,10.5-41.6-1.8c-1.8-1.1-3.6-2.3-5.3-3.6c0,0,8.9-16.1,1.8-39.4c-3-10-3.1-29,12-31.8h0.1
		c15-2.7,14.2,1,14.2,1l6.8,6.6C428.8,161.8,430.3,178.1,427.9,220z"/>
	<path class="st23" d="M394.9,143.5c-0.6,1.4-1.6,2.6-2.8,3.4c0,0-9,4-7.2,17.2s5.1,38.7,5.1,38.7l-3.6,15.4
		c-1.8-1.1-3.6-2.3-5.3-3.6c0,0,8.9-16.1,1.8-39.4C379.8,165.3,379.7,146.2,394.9,143.5L394.9,143.5z"/>
	<path class="st3" d="M408.3,142.6c-3.3,4-9.2,4.5-13.2,1.2c0,0,0,0,0,0l0,0l-0.3-0.3c0,0-11.1,11.1,0.1,12.5
		c5.9,0.7,13.2-6.4,15.3-10.5L408.3,142.6z"/>
	
		<linearGradient id="SVGID_17_" gradientUnits="userSpaceOnUse" x1="409.9161" y1="623.1553" x2="397.8743" y2="623.0151" gradientTransform="matrix(1 0 0 1 0 -480)">
		<stop  offset="0" style="stop-color:#ECC4D7"/>
		<stop  offset="0.42" style="stop-color:#EFD4D1"/>
		<stop  offset="1" style="stop-color:#F2EAC9"/>
	</linearGradient>
	<path class="st24" d="M411.7,132.2c0,0.1-2.1,6.6-3.7,11.1c-1.2,3.6-3.6,6.6-6.9,8.4c-1.9,1.2-4,1.9-6.3,2.2c-1.6,0.1-3-1-3.1-2.6
		c0,0,0,0,0,0l0,0c-0.1-0.6,0.1-1.2,0.4-1.7c0.5-0.9,1.1-2,1.6-3.1c1.1-2.3,2-4.9,1.8-7v-0.2c-0.1-1.1,0.6-2,1.7-2.8
		c1.6-1.2,4.2-2.1,6.8-2.7C406.5,133.1,409.1,132.6,411.7,132.2z"/>
	
		<linearGradient id="SVGID_18_" gradientUnits="userSpaceOnUse" x1="402.649" y1="618.0545" x2="369.7924" y2="631.89" gradientTransform="matrix(1 0 0 1 0 -480)">
		<stop  offset="0" style="stop-color:#ECC4D7"/>
		<stop  offset="0.42" style="stop-color:#EFD4D1"/>
		<stop  offset="1" style="stop-color:#F2EAC9"/>
	</linearGradient>
	<path class="st25" d="M395.3,146.4c-0.5,0.1-1,0.1-1.5,0.1c1.1-2.3,2-4.9,1.8-7l1.7-3.1l1.3-2.3l5.5-0.5l5.5-0.5
		C405.9,142,399.8,145.6,395.3,146.4z"/>
	
		<linearGradient id="SVGID_19_" gradientUnits="userSpaceOnUse" x1="417.3384" y1="599.106" x2="390.1317" y2="602.4331" gradientTransform="matrix(1 0 0 1 0 -480)">
		<stop  offset="0" style="stop-color:#ECC4D7"/>
		<stop  offset="0.42" style="stop-color:#EFD4D1"/>
		<stop  offset="1" style="stop-color:#F2EAC9"/>
	</linearGradient>
	<path class="st26" d="M405.6,102.9c-8-1.7-15.9,3.5-17.6,11.6c-0.1,0.4-0.1,0.7-0.2,1.2c-1.1,6-1.2,12.2-0.1,18.2
		c2.5,9.3,16.1,5.9,18.9,3.1c2.8-2.8,13.8-15.9,12-20.9C417.4,112.5,413.3,104.7,405.6,102.9z"/>
	<path class="st3" d="M394.6,93.8l2.1,1.9c-2.9-0.9-6.1-0.3-8.5,1.6c-2.8,1.6-4.9,4.3-5.8,7.4l4.7-0.8c0,0-1.7,5,6,7.6
		c7.7,2.5,15.9,5.1,15.9,5.1l-1.7-4.5c0,0,4.3,3.3,4.7,5.3c0,3.1-0.3,6.2-0.7,9.3c0,0,3.3-4.5,3.8-3.2c0.5,1.3-2.4,5.5-3.7,6.2
		c-1.3,0.7-1.9,3.8-2.1,4s5.9-2.6,6.5-3.9c0.6-1.4,9.4-14.4,7-18.3l2,0.4c-0.9-1.1-2.1-2-3.4-2.5C421.4,109.4,413.1,89.1,394.6,93.8
		z"/>
	
		<linearGradient id="SVGID_20_" gradientUnits="userSpaceOnUse" x1="375.0834" y1="220.9332" x2="401.5375" y2="220.9332" gradientTransform="matrix(1 0 0 -1 -1.42 429.95)">
		<stop  offset="0" style="stop-color:#ECC4D7"/>
		<stop  offset="0.42" style="stop-color:#EFD4D1"/>
		<stop  offset="1" style="stop-color:#F2EAC9"/>
	</linearGradient>
	<path class="st27" d="M391.7,203.4c-1.1-1.1-2.2-2.5-3.8-2.7c-0.5,1.3,0.6,2.6,1,4c0.1,0.3,0.1,0.7,0,0.9c-0.2,0.4-0.7,0.4-1.1,0.3
		c-2-0.1-3.9-0.6-5.7-1.4c-1.7-0.7-3.3-1.7-5.1-1.9c-0.2,0-0.4,0-0.6,0.1c-0.4,0.3-0.2,1,0.1,1.4c0.7,0.9,1.4,1.7,2.3,2.5
		c-1.3-0.6-2.7-0.9-4.1-1c-0.4,0-0.9,0.1-0.9,0.5c0,0.2,0.1,0.3,0.2,0.4c1,1.2,2.3,2.2,3.7,2.9c-1-0.2-2.1-0.3-3.1-0.3
		c-0.4,0-1,0.2-1,0.7c0,0.1,0.1,0.3,0.2,0.4c1.2,1.5,2.9,2.6,4.8,3.1l-2.9,0.1c-0.2,0-0.4,0-0.5,0.1c-0.5,0.3-0.1,1.2,0.4,1.5
		c2.3,1.6,5.2,1.9,7.9,2.1c5.3,0.4,10.9,0.6,15.7-1.8c0.3-0.2,0.7-0.4,0.8-0.8c0-0.2,0-0.4-0.1-0.6c-0.6-2-0.9-5.5-2.6-6.7
		c-0.9-0.6-1.9-0.9-2.8-1.5S392.7,203.9,391.7,203.4z"/>
	<path class="st2" d="M432.3,199.3c-1.7,16.5-31.3,18.5-31.3,18.5l-3.1-10.6l-0.5-1.9c0,0,15.9-2,18.9-7c3-5-9.5-21.8-1.9-31.2
		c7.6-9.4,9.3-6.5,9.3-6.5S433.9,182.8,432.3,199.3z"/>
	
		<linearGradient id="SVGID_21_" gradientUnits="userSpaceOnUse" x1="347.9541" y1="250.1368" x2="353.9405" y2="250.1368" gradientTransform="matrix(1 0 0 -1 -1.42 429.95)">
		<stop  offset="0" style="stop-color:#183866"/>
		<stop  offset="1" style="stop-color:#1A7FC1"/>
	</linearGradient>
	<path class="st28" d="M352.5,174.6c0,0.5-0.1,1-0.1,1.5c-0.3,2.3-1,6.5-2.9,8.1c-2.7,2.2-3-1-3-2.2c0.1-0.7,0.2-1.4,0.3-2
		c0.6-2.7,3.9-4.5,5.2-5.1L352.5,174.6z"/>
	
		<linearGradient id="SVGID_22_" gradientUnits="userSpaceOnUse" x1="336.2345" y1="259.9324" x2="353.8152" y2="259.9324" gradientTransform="matrix(1 0 0 -1 -1.42 429.95)">
		<stop  offset="0" style="stop-color:#ECC4D7"/>
		<stop  offset="0.42" style="stop-color:#EFD4D1"/>
		<stop  offset="1" style="stop-color:#F2EAC9"/>
	</linearGradient>
	<path class="st29" d="M352.4,176.2c-0.3,2.3-1,6.5-2.9,8.1c-0.8-0.6-1.9-1.4-3-2.2c-1.5-1.1-3-2.3-4.2-3.1c-1-0.7-1.9-1.5-2.7-2.4
		c-0.7-0.9-1.3-1.9-1.7-3l-2.3-5c-0.7-1.6-1.5-3.8-0.2-5.1c0.3-0.3,3.4-0.9,3.6-1.4c0.6-1.2-2.9-3.8-2.7-5.2c0.2-0.8,1-1.3,1.7-1.2
		c0.7,0,2.8,2,3.5,2.4c1.3,0.7,0.2,1.8,1.5,2.6c1.6,0.9,3.1,2,4.4,3.3c1.4,1.7,2.2,3.8,2.8,5.9c0.5,1.5,1.2,3.2,1.7,4.9
		C352.2,175.3,352.3,175.7,352.4,176.2z"/>
	<polygon class="st2" points="341.5,164.4 336.6,140.9 334.8,132.2 363.4,139.9 371.7,196.1 345.1,187.9 	"/>
	
		<linearGradient id="SVGID_23_" gradientUnits="userSpaceOnUse" x1="344.8564" y1="276.9531" x2="380.6125" y2="190.4904" gradientTransform="matrix(1 0 0 -1 0 430)">
		<stop  offset="0" style="stop-color:#FFFFFF;stop-opacity:0"/>
		<stop  offset="0.99" style="stop-color:#FFFFFF"/>
	</linearGradient>
	<polygon class="st30" points="347.5,164.1 336.2,138.8 345.1,187.9 371.7,196.1 368.8,176.8 	"/>
	
		<linearGradient id="SVGID_24_" gradientUnits="userSpaceOnUse" x1="336.2268" y1="259.933" x2="347.9966" y2="259.933" gradientTransform="matrix(1 0 0 -1 -1.42 429.95)">
		<stop  offset="0" style="stop-color:#ECC4D7"/>
		<stop  offset="0.42" style="stop-color:#EFD4D1"/>
		<stop  offset="1" style="stop-color:#F2EAC9"/>
	</linearGradient>
	<path class="st31" d="M343.2,174.5c0.9-0.5,2.7-1.3,3.2-2.2c0.1-0.2,0.3-0.5,0.1-0.7c-0.6-0.9-3.3,0.2-4,0c0.5-0.9,5.1-3.4,2.9-4
		c-0.5-0.1-3.3,1.3-3.8,1.2c0.4-0.3,3.3-2.4,3.8-3c0.4-0.4,0.3-1-0.1-1.4c-0.3-0.3-0.7-0.3-1-0.2c-1.6,0.7-3.2,1.4-4.8,1.9
		c0.3-0.5,4.6-3,4.8-3.6c0.1-0.2,0.1-0.5,0-0.7c-0.1-0.3-0.3-0.5-0.6-0.6c-1.2-0.5-2.5,0-3.7,0.5l-2.8,1.1c-0.9,0.4-1.9,0.8-2.2,1.7
		c-0.1,0.5-0.2,1-0.1,1.4c0.3,3,1.4,5.9,3.1,8.4c0.8,1.2,3.5,4.2,5,4.5C344.4,179.2,341.9,175.2,343.2,174.5z"/>
	<path class="st23" d="M372.7,250.6c0,0,9.7-22.5,21-28.9l-3.8-1.6c0,0-19.8,21.2-22.1,32.1c-2.3,10.9,2.4,57.6,2.4,57.6h3.2
		C373.4,309.8,368,255.1,372.7,250.6z"/>
	<path class="st23" d="M417.1,201.9c-6.3,2.6-17,4.9-19.3,5.3l-0.4,0.1l-0.1-2c0,0,15.9-2,18.9-7s-9.5-21.8-1.9-31.2
		c0,0-1,8.3,1.5,14.4C418.3,187.7,424.1,198.9,417.1,201.9z"/>
</g>
</svg>
