<svg width="132" height="68" viewBox="0 0 132 68" fill="none" xmlns="http://www.w3.org/2000/svg">
<path d="M30.8164 57.7953H12.6895L9.69009 66.4186H0.10498L16.4714 21.0974H27.0998L43.4662 66.4186H33.8159L30.8164 57.7953ZM28.3387 50.5335L21.753 31.601L15.1673 50.5335H28.3387Z" fill="white"/>
<path d="M41.3501 48.329C41.3501 44.6982 42.0674 41.4778 43.5019 38.6683C44.9798 35.8586 46.9795 33.6973 49.5007 32.1846C52.0219 30.6717 54.8257 29.9153 57.9121 29.9153C60.2595 29.9153 62.4983 30.434 64.6282 31.4714C66.7582 32.4654 68.4535 33.8055 69.7142 35.4913V18.4391H78.9733V66.4186H69.7142V61.102C68.5839 62.8741 66.9974 64.3005 64.9542 65.3812C62.9111 66.4618 60.5421 67.0022 57.8469 67.0022C54.8041 67.0022 52.0219 66.2241 49.5007 64.668C46.9795 63.1119 44.9798 60.929 43.5019 58.1195C42.0674 55.2666 41.3501 52.0031 41.3501 48.329ZM69.7794 48.4587C69.7794 46.2542 69.3448 44.374 68.4753 42.8179C67.6059 41.2185 66.4322 40.0082 64.9542 39.187C63.4763 38.3224 61.8896 37.8902 60.1943 37.8902C58.499 37.8902 56.934 38.3008 55.4995 39.1222C54.065 39.9434 52.8913 41.1536 51.9785 42.753C51.109 44.3091 50.6744 46.1677 50.6744 48.329C50.6744 50.4902 51.109 52.3921 51.9785 54.0347C52.8913 55.634 54.065 56.8659 55.4995 57.7304C56.9775 58.5948 58.5424 59.0272 60.1943 59.0272C61.8896 59.0272 63.4763 58.6165 64.9542 57.7953C66.4322 56.9307 67.6059 55.7205 68.4753 54.1644C69.3448 52.565 69.7794 50.6632 69.7794 48.4587Z" fill="white"/>
<path d="M93.4187 36.0748C94.5924 34.1729 96.1139 32.6816 97.983 31.601C99.8958 30.5203 102.069 29.9801 104.504 29.9801V39.5112H102.091C99.2219 39.5112 97.0484 40.1811 95.5705 41.5211C94.136 42.861 93.4187 45.1952 93.4187 48.5235V66.4186H84.29V30.4988H93.4187V36.0748Z" fill="white"/>
<path d="M119.659 30.4988V66.4186H110.531V30.4988H119.659Z" fill="white"/>
<path opacity="0.4" d="M115.301 33.2093C124.524 33.2093 132 25.7751 132 16.6047C132 7.43416 124.524 0 115.301 0C106.079 0 98.6025 7.43416 98.6025 16.6047C98.6025 25.7751 106.079 33.2093 115.301 33.2093Z" fill="#F2CD5D"/>
<path d="M115.301 25.3023C120.132 25.3023 124.048 21.4082 124.048 16.6047C124.048 11.8011 120.132 7.90698 115.301 7.90698C110.47 7.90698 106.554 11.8011 106.554 16.6047C106.554 21.4082 110.47 25.3023 115.301 25.3023Z" fill="#F2CD5D"/>
</svg>
